<svg xmlns="http://www.w3.org/2000/svg" viewBox="0 0 196.74 196.74"><defs><style>.cls-1{fill:#6d213d;}.cls-2{fill:#adb9de;}.cls-3{fill:#869d7a;}.cls-4{fill:#f2b95f;}.cls-5{fill:#fcb960;}.cls-6{fill:#8b5e33;}.cls-7{fill:none;stroke:#6d213d;stroke-miterlimit:10;stroke-width:2px;}.cls-8{font-size:33px;fill:#fff;font-family:Belleza-Regular, Belleza;}</style></defs><g id="Layer_2" data-name="Layer 2"><g id="Layer_1-2" data-name="Layer 1"><circle class="cls-1" cx="98.37" cy="98.37" r="98.37"/><polygon class="cls-2" points="125.43 122.16 100.04 122.16 87.34 144.14 100.04 166.13 125.43 166.13 138.12 144.14 125.43 122.16"/><polygon class="cls-3" points="125.43 74.61 100.04 74.61 87.34 96.6 100.04 118.58 125.43 118.58 138.12 96.6 125.43 74.61"/><polygon class="cls-4" points="166.9 98.37 141.51 98.37 128.81 120.36 141.51 142.34 166.9 142.34 179.59 120.36 166.9 98.37"/><polygon class="cls-5" points="84.05 50.94 58.66 50.94 45.97 72.93 58.66 94.92 84.05 94.92 96.75 72.93 84.05 50.94"/><polygon class="cls-2" points="166.9 50.94 141.51 50.94 128.81 72.93 141.51 94.92 166.9 94.92 179.59 72.93 166.9 50.94"/><polygon class="cls-6" points="125.43 27.06 100.04 27.06 87.34 49.05 100.04 71.04 125.43 71.04 138.12 49.05 125.43 27.06"/><text/><polygon class="cls-7" points="81.93 54.61 60.78 54.61 50.2 72.93 60.78 91.25 81.93 91.25 92.51 72.93 81.93 54.61"/><polygon class="cls-7" points="122.97 30.73 101.82 30.73 91.25 49.05 101.82 67.37 122.97 67.37 133.55 49.05 122.97 30.73"/><polygon class="cls-7" points="164.78 54.61 143.63 54.61 133.05 72.93 143.63 91.25 164.78 91.25 175.35 72.93 164.78 54.61"/><polygon class="cls-7" points="164.78 102.04 143.63 102.04 133.05 120.36 143.63 138.67 164.78 138.67 175.35 120.36 164.78 102.04"/><polygon class="cls-7" points="123.31 125.82 102.16 125.82 91.58 144.14 102.16 162.46 123.31 162.46 133.88 144.14 123.31 125.82"/><polygon class="cls-7" points="123.97 78.28 102.82 78.28 92.25 96.6 102.82 114.92 123.97 114.92 134.55 96.6 123.97 78.28"/><text class="cls-8" transform="translate(9.97 121.67)">RKHIVE</text></g></g></svg>