<svg xmlns="http://www.w3.org/2000/svg" viewBox="0 0 196.74 196.74"><defs><style>.cls-1{fill:#6d213d;}.cls-2{fill:#adb9de;}.cls-3{fill:#869d7a;}.cls-4{fill:#f2b95f;}.cls-5{fill:#fcb960;}.cls-6{fill:#8b5e33;}.cls-7{fill:none;stroke:#6d213d;stroke-miterlimit:10;stroke-width:2px;}.cls-8{font-size:30.34px;fill:#fff;font-family:Belleza-Regular, Belleza;}</style></defs><g id="Layer_2" data-name="Layer 2"><g id="Layer_1-2" data-name="Layer 1"><circle class="cls-1" cx="98.37" cy="98.37" r="98.37"/><polygon class="cls-2" points="110.4 122.16 85.01 122.16 72.32 144.14 85.01 166.13 110.4 166.13 123.09 144.14 110.4 122.16"/><polygon class="cls-3" points="110.4 74.61 85.01 74.61 72.32 96.6 85.01 118.58 110.4 118.58 123.09 96.6 110.4 74.61"/><polygon class="cls-4" points="151.87 98.37 126.48 98.37 113.78 120.36 126.48 142.34 151.87 142.34 164.56 120.36 151.87 98.37"/><polygon class="cls-5" points="69.02 50.94 43.63 50.94 30.94 72.93 43.63 94.92 69.02 94.92 81.72 72.93 69.02 50.94"/><polygon class="cls-2" points="151.87 50.94 126.48 50.94 113.78 72.93 126.48 94.92 151.87 94.92 164.56 72.93 151.87 50.94"/><polygon class="cls-6" points="110.4 27.06 85.01 27.06 72.32 49.05 85.01 71.04 110.4 71.04 123.09 49.05 110.4 27.06"/><text/><polygon class="cls-7" points="66.9 54.61 45.75 54.61 35.18 72.93 45.75 91.25 66.9 91.25 77.48 72.93 66.9 54.61"/><polygon class="cls-7" points="108.94 30.73 87.79 30.73 77.22 49.05 87.79 67.37 108.94 67.37 119.52 49.05 108.94 30.73"/><polygon class="cls-7" points="149.75 54.61 128.6 54.61 118.02 72.93 128.6 91.25 149.75 91.25 160.33 72.93 149.75 54.61"/><polygon class="cls-7" points="149.75 102.04 128.6 102.04 118.02 120.36 128.6 138.67 149.75 138.67 160.33 120.36 149.75 102.04"/><polygon class="cls-7" points="108.28 125.82 87.13 125.82 76.55 144.14 87.13 162.46 108.28 162.46 118.86 144.14 108.28 125.82"/><polygon class="cls-7" points="108.94 78.28 87.79 78.28 77.22 96.6 87.79 114.92 108.94 114.92 119.52 96.6 108.94 78.28"/><text class="cls-8" transform="translate(13.94 123.67)">RKHIVE</text></g></g></svg>